<svg xmlns="http://www.w3.org/2000/svg" width="14" height="14" viewBox="0 0 14 14"><path fill="#444" d="M5 7q0 .414-.293.707T4 8t-.707-.293T3 7t.293-.707T4 6t.707.293T5 7zm3 0q0 .414-.293.707T7 8t-.707-.293T6 7t.293-.707T7 6t.707.293T8 7zm3 0q0 .414-.293.707T10 8t-.707-.293T9 7t.293-.707T10 6t.707.293T11 7zM7 3q-1.594 0-2.98.543T1.817 5.008 1 7q0 .875.56 1.668t1.574 1.37l.68.392-.21.75q-.188.71-.548 1.344 1.187-.492 2.148-1.336l.336-.297.445.048Q6.525 11 7 11q1.595 0 2.98-.543t2.204-1.465T13 7t-.816-1.992T9.98 3.543 7 3zm7 4q0 1.36-.937 2.512t-2.547 1.82T7 12q-.547 0-1.133-.062-1.547 1.367-3.594 1.89-.383.11-.89.173h-.04q-.117 0-.21-.08t-.126-.216v-.008q-.023-.03-.004-.094t.016-.078.034-.074l.047-.07.056-.066.062-.07q.055-.062.242-.27t.27-.297.242-.31.254-.397.21-.46.204-.595Q1.413 10.22.706 9.195T0 7.002q0-1.015.554-1.94t1.492-1.598T4.28 2.396 7 2t2.718.396 2.234 1.066 1.492 1.598T14 7z"/></svg>