<svg xmlns="http://www.w3.org/2000/svg" width="14" height="14" viewBox="0 0 14 14"><path fill="#444" d="M5 7q0-.414-.293-.707T4 6t-.707.293T3 7t.293.707T4 8t.707-.293T5 7zm3 0q0-.414-.293-.707T7 6t-.707.293T6 7t.293.707T7 8t.707-.293T8 7zm3 0q0-.414-.293-.707T10 6t-.707.293T9 7t.293.707T10 8t.707-.293T11 7zm3 0q0 1.36-.937 2.512t-2.547 1.82T7 12q-.86 0-1.648-.14Q4 13.21 1.954 13.647q-.406.078-.672.102-.094.008-.172-.047t-.102-.14q-.03-.118.156-.29.04-.04.184-.168t.2-.184.183-.198.188-.246.16-.29.156-.374.113-.45.098-.565q-1.14-.703-1.793-1.69T0 7q0-1.358.937-2.51t2.547-1.82T7 2t3.516.67 2.547 1.82T14 7z"/></svg>