<svg xmlns="http://www.w3.org/2000/svg" width="11" height="14" viewBox="0 0 11 14"><path fill="#444" d="M3 10.5q0 .625-.438 1.062T1.5 12t-1.062-.438T0 10.5t.438-1.062T1.5 9t1.062.438T3 10.5zm4 .96q.016.22-.133.376Q6.727 12 6.5 12H5.445q-.195 0-.336-.13t-.157-.323q-.172-1.79-1.44-3.06t-3.06-1.44Q.258 7.03.13 6.89T0 6.556V5.5q0-.227.164-.367Q.297 5 .5 5h.04q1.25.102 2.39.63t2.023 1.417q.89.883 1.418 2.023T7 11.46zm4 .017q.016.21-.14.367-.142.156-.36.156H9.383q-.203 0-.348-.137t-.152-.332q-.094-1.68-.79-3.19T6.286 5.715 3.66 3.905.47 3.11Q.273 3.1.136 2.956T0 2.617V1.5q0-.22.156-.36Q.296 1 .5 1h.023q2.047.102 3.918.937t3.325 2.297q1.46 1.453 2.297 3.324T11 11.476z"/></svg>