<svg xmlns="http://www.w3.org/2000/svg" width="12" height="14" viewBox="0 0 12 14"><path fill="#444" d="M6 1q1.633 0 3.012.805t2.184 2.184T12 7t-.804 3.013-2.184 2.184T6 13.002t-3.012-.805-2.184-2.184T0 7t.804-3.01 2.184-2.185T6 1zm2.14 4.07q-.015.008-.073.074t-.105.074q.016 0 .035-.04t.04-.085.026-.055q.047-.055.172-.117.11-.046.406-.093.267-.062.4.086-.017-.016.073-.102t.113-.093q.023-.016.117-.035t.117-.06l.016-.17q-.094.007-.137-.056t-.052-.164q0 .016-.047.062 0-.055-.034-.062t-.09.008-.07.008q-.078-.023-.117-.06t-.063-.128-.03-.117q-.017-.04-.075-.082t-.074-.08l-.02-.044-.023-.05-.03-.044-.044-.02-.054.04-.06.077-.034.038q-.023-.016-.047-.012t-.035.008-.035.023-.04.027q-.022.016-.065.023t-.066.016q.117-.04-.008-.086-.078-.03-.125-.023.07-.03.06-.094t-.066-.11h.04q-.01-.03-.067-.065T7.83 3.42t-.102-.048q-.062-.04-.266-.074t-.258-.004q-.04.047-.035.082t.03.11.027.097q.008.047-.043.102t-.05.094q0 .054.108.12t.078.168q-.023.062-.125.125t-.125.094q-.04.062-.012.145t.082.13q.016.015.012.03t-.027.035-.043.03-.05.028l-.024.016q-.086.04-.16-.046t-.105-.203q-.055-.194-.125-.233-.18-.062-.227.008-.038-.102-.32-.203-.194-.07-.452-.03.047-.01 0-.118-.055-.117-.148-.094.023-.047.03-.137t.01-.105q.022-.102.093-.18.008-.008.055-.066t.074-.105.004-.047q.273.03.39-.086.04-.04.09-.133T6.3 2.79q.07-.047.108-.043t.113.043.114.04q.11.007.12-.087t-.058-.155q.094.008.023-.133-.04-.055-.063-.07-.094-.03-.21.04-.063.03.015.06-.008-.007-.074.083t-.13.137-.124-.04q-.008-.007-.043-.104t-.073-.105q-.062 0-.125.117.023-.062-.086-.117T5.62 2.39q.147-.093-.063-.21-.055-.03-.16-.04t-.152.032q-.04.055-.043.09t.04.062.08.043.09.03.067.024q.108.08.06.11-.015.008-.065.027t-.09.035-.047.03q-.023.032 0 .11t-.016.11q-.04-.04-.07-.138t-.055-.13q.055.07-.195.048l-.078-.008q-.03 0-.125.016t-.16.008-.106-.062q-.03-.062 0-.156.008-.03.03-.016-.03-.023-.085-.074t-.08-.066q-.358.117-.733.32.047.008.094-.008.04-.016.103-.05t.078-.044q.267-.11.33-.055l.038-.04q.11.126.156.196-.055-.03-.234-.008-.156.047-.172.094.055.093.04.14-.032-.023-.09-.078t-.114-.086-.117-.04q-.125 0-.172.01-1.14.624-1.836 1.733.054.054.093.06.03.01.04.07t.02.087.09-.023q.07.062.022.148.008-.008.344.21.147.134.163.165.023.086-.078.14-.008-.015-.07-.07t-.07-.03q-.023.04.004.145t.08.098q-.054 0-.073.125t-.02.277-.008.184l.015.008q-.023.094.043.27t.168.152q-.102.023.156.336.047.062.062.07.023.016.094.06t.117.077.078.08q.03.04.078.177t.11.184q-.016.048.074.157t.082.18q-.008 0-.02.008t-.02.008q.023.055.12.11t.122.1q.008.024.016.08t.023.085.062.016q.015-.156-.188-.484-.117-.195-.133-.227-.024-.04-.044-.12t-.035-.114q.017 0 .048.01t.066.028.06.03.015.024q-.024.055.015.137t.094.144.132.148.094.102q.047.047.11.152t0 .105q.07 0 .155.08t.134.155q.04.062.062.203t.04.187q.015.055.065.105t.1.074l.124.062.102.055q.04.017.145.083t.17.09q.077.03.124.03t.113-.02.105-.026q.117-.016.227.117t.163.164q.28.148.43.086-.016.008.004.06t.062.12.07.113.042.066q.04.047.14.117t.142.117q.047-.03.055-.07-.024.062.054.156t.14.078q.11-.022.11-.25-.242.118-.383-.14 0-.008-.02-.043t-.03-.066-.02-.065 0-.06.04-.022q.07 0 .077-.027t-.016-.098-.03-.102q-.008-.062-.086-.156t-.094-.117q-.04.07-.125.062t-.125-.07q0 .008-.012.043t-.012.05q-.102 0-.117-.007.007-.022.02-.136t.026-.176q.008-.03.043-.094t.058-.113.03-.097-.034-.074-.137-.02q-.148.007-.203.155-.008.023-.023.082t-.038.09-.07.055q-.055.023-.187.016t-.187-.04q-.102-.06-.176-.226t-.074-.29q0-.077.02-.206t.023-.195T5.1 7.7q.023-.016.07-.074t.078-.082q.016-.008.035-.012t.036 0 .03-.012.024-.047q-.008-.008-.03-.023-.024-.023-.032-.023.055.023.223-.012t.216.012q.117.086.172-.016 0-.007-.02-.073t-.004-.105q.04.21.227.07.024.023.122.04t.137.038q.022.016.054.043t.043.035.04-.004.065-.05q.078.108.094.186.086.312.148.344.055.023.086.016t.035-.074 0-.11-.012-.097l-.008-.063v-.14l-.008-.063Q6.8 7.38 6.772 7.31t.012-.145.117-.145q.01-.008.063-.027t.12-.05.1-.063q.163-.148.116-.273.054 0 .085-.07-.008 0-.04-.023t-.058-.04-.035-.015q.07-.04.016-.126.04-.023.06-.086t.058-.078q.07.094.164.016.055-.062.008-.125.04-.054.16-.08t.145-.075q.055.016.062-.016t.008-.095.023-.094q.03-.038.117-.07t.102-.038l.133-.086q.023-.03 0-.03.14.015.242-.087.078-.087-.047-.157.023-.047-.023-.074t-.117-.044q.023-.008.09-.004t.082-.012q.117-.078-.055-.125-.133-.04-.336.094zm-1.273 6.852q1.61-.28 2.742-1.477-.024-.023-.1-.035t-.097-.027q-.14-.055-.187-.062.008-.054-.02-.1t-.062-.07-.098-.063-.086-.055q-.016-.016-.055-.047t-.055-.043-.06-.035-.065-.016-.078.01l-.023.007q-.023.008-.043.02t-.042.023-.03.023 0 .02q-.165-.133-.282-.172-.04-.007-.086-.042t-.082-.055-.078-.012-.09.056q-.04.04-.047.117t-.016.102q-.055-.04 0-.137t.016-.145q-.023-.047-.082-.035t-.093.035-.09.066-.07.05-.066.043-.065.06q-.023.03-.047.093t-.04.086q-.015-.03-.09-.05t-.073-.044q.016.078.03.273t.04.298q.055.242-.094.375-.21.195-.226.312-.03.172.094.203 0 .055-.062.16t-.055.168q0 .047.017.125z"/></svg>