<svg xmlns="http://www.w3.org/2000/svg" width="15" height="14" viewBox="0 0 15 14"><path fill="#444" d="M4.633 7q-1.266.04-2.07 1H1.516q-.64 0-1.078-.316T0 6.758Q0 4 .97 4q.046 0 .34.164t.76.332.93.168q.524 0 1.04-.18Q4 4.774 4 5q0 1.086.634 2zM13 11.977q0 .937-.57 1.48T10.914 14H4.086q-.945 0-1.516-.543T2 11.977q0-.414.027-.81t.11-.85.206-.85.336-.76.483-.634.668-.418.872-.156q.078 0 .336.167t.57.375.836.375 1.055.168 1.054-.168.836-.375.57-.375.336-.168q.477 0 .87.155t.67.418.483.633.335.762.207.848.11.852.026.81zM5 2q0 .828-.586 1.414T3 4t-1.414-.586T1 2 1.586.586 3 0t1.414.586T5 2zm5.5 3q0 1.242-.88 2.12T7.5 8t-2.12-.88T4.5 5t.88-2.12T7.5 2t2.12.88T10.5 5zM15 6.758q0 .61-.438.926T13.484 8h-1.047q-.805-.96-2.07-1Q11 6.086 11 5q0-.227-.04-.516.517.18 1.04.18.46 0 .93-.168t.762-.332.34-.164q.97 0 .97 2.758zM14 2q0 .828-.586 1.414T12 4t-1.414-.586T10 2t.586-1.414T12 0t1.414.586T14 2z"/></svg>