<svg xmlns="http://www.w3.org/2000/svg" width="14" height="14" viewBox="0 0 14 14"><path fill="#444" d="M10 8h2.383q-.04.047-.078.082t-.07.06l-.023.03-4.867 4.687Q7.205 13 7 13t-.343-.14L1.782 8.155Q1.742 8.14 1.618 8H4.5q.173 0 .31-.105t.176-.27l.547-2.195 1.484 5.21q.047.157.18.26t.305.1q.164 0 .297-.1t.18-.26l1.14-3.788.438.875q.14.273.445.273zm4-3.344Q14 5.79 13.195 7h-2.883l-.867-1.727q-.062-.133-.2-.21T8.962 5q-.35.04-.437.36L7.515 8.717l-1.53-5.36q-.048-.155-.185-.257T5.49 3t-.304.104-.172.27L4.108 7H.803q-.805-1.212-.805-2.345 0-1.72.992-2.687t2.742-.97q.484 0 .988.17t.937.452.746.535.594.53q.28-.28.594-.53t.747-.535.937-.453.988-.168q1.75 0 2.742.968t.992 2.687z"/></svg>