<svg xmlns="http://www.w3.org/2000/svg" width="14" height="14" viewBox="0 0 14 14"><path fill="#444" d="M13 4.656q0-.633-.168-1.117t-.43-.77-.637-.466-.734-.242T10.266 2t-.875.2-.863.5-.676.562-.468.48q-.14.172-.383.172t-.384-.172q-.187-.22-.47-.48T5.472 2.7t-.862-.5-.875-.2-.766.062-.734.242-.637.465-.43.77-.168 1.116q0 1.313 1.46 2.773L7 11.803l4.53-4.367Q13 5.967 13 4.657zm1 0q0 1.727-1.79 3.516L7.345 12.86Q7.204 13 7 13t-.344-.14L1.78 8.155q-.077-.062-.214-.203t-.434-.512-.53-.76-.42-.946T0 4.656q0-1.72.99-2.687T3.734 1q.484 0 .988.168t.938.453.746.536.594.53q.28-.28.594-.53t.746-.535.937-.452.988-.168q1.75 0 2.742.97t.992 2.686z"/></svg>