<svg xmlns="http://www.w3.org/2000/svg" width="11" height="14" viewBox="0 0 11 14"><path fill="#444" d="M3 10.25v.5q0 .102-.074.176T2.75 11h-.5q-.102 0-.176-.074T2 10.75v-.5q0-.102.074-.176T2.25 10h.5q.102 0 .176.074T3 10.25zm0-2v.5q0 .102-.074.176T2.75 9h-.5q-.102 0-.176-.074T2 8.75v-.5q0-.102.074-.176T2.25 8h.5q.102 0 .176.074T3 8.25zm2 0v.5q0 .102-.074.176T4.75 9h-.5q-.102 0-.176-.074T4 8.75v-.5q0-.102.074-.176T4.25 8h.5q.102 0 .176.074T5 8.25zm-2-2v.5q0 .102-.074.176T2.75 7h-.5q-.102 0-.176-.074T2 6.75v-.5q0-.102.074-.176T2.25 6h.5q.102 0 .176.074T3 6.25zm6 4v.5q0 .102-.074.176T8.75 11h-.5q-.102 0-.176-.074T8 10.75v-.5q0-.102.074-.176T8.25 10h.5q.102 0 .176.074T9 10.25zm-2-2v.5q0 .102-.074.176T6.75 9h-.5q-.102 0-.176-.074T6 8.75v-.5q0-.102.074-.176T6.25 8h.5q.102 0 .176.074T7 8.25zm-2-2v.5q0 .102-.074.176T4.75 7h-.5q-.102 0-.176-.074T4 6.75v-.5q0-.102.074-.176T4.25 6h.5q.102 0 .176.074T5 6.25zm4 2v.5q0 .102-.074.176T8.75 9h-.5q-.102 0-.176-.074T8 8.75v-.5q0-.102.074-.176T8.25 8h.5q.102 0 .176.074T9 8.25zm-2-2v.5q0 .102-.074.176T6.75 7h-.5q-.102 0-.176-.074T6 6.75v-.5q0-.102.074-.176T6.25 6h.5q.102 0 .176.074T7 6.25zm2 0v.5q0 .102-.074.176T8.75 7h-.5q-.102 0-.176-.074T8 6.75v-.5q0-.102.074-.176T8.25 6h.5q.102 0 .176.074T9 6.25zM7 13h3V4H8v.25q0 .312-.22.53T7.25 5h-3.5q-.312 0-.53-.22T3 4.25V4H1v9h3v-1.75q0-.102.074-.176T4.25 11h2.5q.102 0 .176.074T7 11.25V13zm0-9.25v-2.5q0-.102-.074-.176T6.75 1h-.5q-.102 0-.176.074T6 1.25V2H5v-.75q0-.102-.074-.176T4.75 1h-.5q-.102 0-.176.074T4 1.25v2.5q0 .102.074.176T4.25 4h.5q.102 0 .176-.074T5 3.75V3h1v.75q0 .102.074.176T6.25 4h.5q.102 0 .176-.074T7 3.75zm4-.25v10q0 .203-.148.352T10.5 14H.5q-.203 0-.352-.148T0 13.5v-10q0-.203.148-.352T.5 3H3V.75q0-.312.22-.53T3.75 0h3.5q.312 0 .53.22T8 .75V3h2.5q.203 0 .352.148T11 3.5z"/></svg>