<svg xmlns="http://www.w3.org/2000/svg" width="12" height="14" viewBox="0 0 12 14"><path fill="#444" d="M10.64 11.14V6.08H9.587q.156.492.156 1.023 0 .985-.5 1.817t-1.36 1.316-1.874.484q-1.54 0-2.633-1.06T2.28 7.1q0-.532.157-1.024H1.335v5.063q0 .202.137.34t.34.136h8.352q.195 0 .336-.137t.14-.34zM8.423 6.978q0-.97-.707-1.652T6.008 4.64q-.992 0-1.7.685t-.706 1.652.707 1.652 1.698.683q1 0 1.707-.684t.707-1.653zm2.22-2.813v-1.29q0-.218-.157-.378t-.383-.16h-1.36q-.226 0-.382.16t-.156.38v1.288q0 .227.156.383t.383.156h1.36q.226 0 .382-.156t.156-.383zM12 2.54v8.92q0 .634-.453 1.087T10.46 13H1.54q-.634 0-1.087-.453T0 11.46V2.54q0-.634.453-1.087T1.54 1h8.92q.634 0 1.087.453T12 2.54z"/></svg>