<svg xmlns="http://www.w3.org/2000/svg" width="14" height="14" viewBox="0 0 14 14"><path fill="#444" d="M10 5.5q0-.203-.148-.352T9.5 5q-1.344 0-2.484.387T4.99 6.434 3.15 8.15Q3 8.312 3 8.5q0 .204.15.353T3.5 9q.188 0 .353-.147.21-.187.578-.555t.524-.516q1.07-.97 2.098-1.375T9.502 6q.202 0 .35-.147t.15-.352zm4-1.547q0 .742-.156 1.508-.36 1.75-1.44 2.993T9.61 10.547q-1.672.844-3.422.844-1.156 0-2.234-.366-.117-.04-.688-.328t-.75-.29q-.125 0-.31.25t-.35.548-.41.547-.47.25q-.234 0-.398-.085t-.242-.187-.21-.328q-.017-.03-.048-.086t-.043-.078-.023-.074T0 11.057q0-.273.242-.574t.53-.512.532-.437.242-.375q0-.03-.11-.297t-.124-.343q-.07-.398-.07-.813 0-.898.34-1.72t.93-1.44 1.332-1.086 1.594-.746q.43-.14 1.133-.2t1.403-.07 1.395-.046 1.277-.187.887-.442l.23-.23.23-.22.21-.155.286-.125.34-.035q.305 0 .55.36t.372.874.187.97.062.75z"/></svg>