<svg xmlns="http://www.w3.org/2000/svg" width="220.875" height="29.562" viewBox="0 0 220.875 29.562"><path fill="#3CADB2" d="M11.086 15.826c2.152 0 3.15 1.633 3.36 3.952.05.556-.002 1.364-.074 2.3-.242 3.115-.52 6.94 1.553 6.94 1.753 0 2.654-3.363 3.174-7.198.5-3.795-.03-5.685.23-7.37.498-3.192 3.286-6.055 2.424-10.127-.477-2.26-1.72-3.32-2.953-3.768-2.837-1.033-4.67.957-7.717.957s-4.88-1.99-7.72-.957C2.136 1.002.892 2.065.414 4.323c-.86 4.07 1.927 6.935 2.427 10.128.26 1.686-.27 3.575.232 7.37.52 3.834 1.42 7.198 3.174 7.198 2.07 0 1.795-3.825 1.553-6.94-.072-.936-.125-1.745-.075-2.3.21-2.32 1.22-3.952 3.36-3.952z"/><g fill="#3CADB2"><path d="M27.138 26.492V2.482h8.207c7.45 0 12.31 5.22 12.31 12.023 0 6.84-4.858 11.986-12.31 11.986h-8.207zM44.56 14.505c0-5.184-3.275-9.36-9.215-9.36h-5.22V23.83h5.22c5.83 0 9.215-4.176 9.215-9.323zM51.222 17.78c0-5.04 3.6-9.106 8.567-9.106 5.254 0 8.35 4.104 8.35 9.323v.684H54.065c.216 3.276 2.52 6.012 6.263 6.012 1.98 0 3.995-.792 5.363-2.196l1.297 1.764c-1.728 1.728-4.068 2.664-6.91 2.664-5.148 0-8.855-3.708-8.855-9.143zm8.53-6.874c-3.708 0-5.543 3.13-5.687 5.795h11.41c-.035-2.59-1.763-5.794-5.723-5.794zM84.23 26.492V15.117c0-3.06-1.547-4.032-3.886-4.032-2.124 0-4.14 1.296-5.147 2.7v12.707h-2.7V9.106h2.7v2.52c1.224-1.44 3.6-2.952 6.19-2.952 3.637 0 5.544 1.836 5.544 5.615V26.49h-2.7zM92.873 22.856V11.48h-2.88V9.107h2.88V4.354h2.7v4.75H99.1v2.376h-3.527v10.8c0 1.296.576 2.23 1.764 2.23.756 0 1.476-.323 1.836-.72l.792 2.017c-.685.648-1.656 1.116-3.24 1.116-2.556 0-3.852-1.475-3.852-4.067zM102.45 4.822c0-1.008.827-1.835 1.8-1.835 1.007 0 1.835.828 1.835 1.835s-.828 1.8-1.836 1.8c-.973 0-1.8-.792-1.8-1.8zm.467 21.67V9.106h2.7v17.386h-2.7zM109.505 24.188l1.404-1.944c1.15 1.332 3.347 2.484 5.722 2.484 2.664 0 4.104-1.26 4.104-2.988 0-4.21-10.762-1.62-10.762-8.063 0-2.7 2.338-5.003 6.48-5.003 2.95 0 5.038 1.116 6.442 2.52l-1.26 1.872c-1.045-1.26-2.953-2.196-5.184-2.196-2.377 0-3.852 1.188-3.852 2.736 0 3.815 10.762 1.296 10.762 8.063 0 2.915-2.34 5.254-6.838 5.254-2.843 0-5.255-.864-7.02-2.736zM128.296 22.856V11.48h-2.88V9.107h2.88V4.354h2.7v4.75h3.526v2.376h-3.527v10.8c0 1.296.576 2.23 1.764 2.23.755 0 1.476-.323 1.835-.72l.793 2.017c-.686.648-1.656 1.116-3.24 1.116-2.557 0-3.852-1.475-3.852-4.067zM137.01 23.108l1.763-2.268c1.584 1.764 4.174 3.42 7.56 3.42 4.282 0 5.65-2.305 5.65-4.14 0-6.19-14.218-2.772-14.218-11.34 0-3.958 3.527-6.658 8.242-6.658 3.672 0 6.516 1.224 8.53 3.348l-1.8 2.196c-1.8-1.98-4.318-2.88-6.947-2.88-2.88 0-4.93 1.548-4.93 3.816 0 5.4 14.217 2.304 14.217 11.267 0 3.49-2.375 7.054-8.854 7.054-4.175 0-7.236-1.584-9.214-3.816zM180.42 26.492V14.685c0-2.196-.972-3.6-3.202-3.6-1.8 0-3.71 1.296-4.607 2.664v12.74h-2.698V14.686c0-2.196-.938-3.6-3.205-3.6-1.764 0-3.635 1.296-4.57 2.7v12.707h-2.7V9.106h2.7v2.52c.72-1.116 3.06-2.952 5.615-2.952 2.664 0 4.176 1.44 4.68 3.24.97-1.584 3.31-3.24 5.83-3.24 3.168 0 4.86 1.764 4.86 5.255v12.56h-2.7zM188.056 4.822c0-1.008.828-1.835 1.8-1.835 1.007 0 1.835.828 1.835 1.835s-.827 1.8-1.835 1.8c-.97 0-1.8-.792-1.8-1.8zm.466 21.67V9.106h2.7v17.386h-2.7zM196.622 26.492V2.482h2.7v24.01h-2.7zM203.716 17.78c0-5.04 3.6-9.106 8.566-9.106 5.256 0 8.352 4.104 8.352 9.323v.684H206.56c.215 3.276 2.52 6.012 6.264 6.012 1.98 0 3.994-.792 5.363-2.196l1.295 1.764c-1.727 1.728-4.066 2.664-6.91 2.664-5.15 0-8.856-3.708-8.856-9.143zm8.53-6.874c-3.706 0-5.542 3.13-5.687 5.795h11.41c-.035-2.59-1.764-5.794-5.723-5.794z"/></g></svg>