<svg xmlns="http://www.w3.org/2000/svg" width="14" height="14" viewBox="0 0 14 14"><path fill="#444" d="M10 8.75v-1.5q0-.11-.07-.18T9.75 7H8V5.25q0-.11-.07-.18T7.75 5h-1.5q-.11 0-.18.07T6 5.25V7H4.25q-.11 0-.18.07T4 7.25v1.5q0 .11.07.18t.18.07H6v1.75q0 .11.07.18t.18.07h1.5q.11 0 .18-.07t.07-.18V9h1.75q.11 0 .18-.07t.07-.18zM5 3h4V2H5v1zM2 3v10h-.25q-.72 0-1.234-.516T0 11.25v-6.5q0-.72.516-1.234T1.75 3H2zm9.25 0v10h-8.5V3H4V1.75q0-.312.22-.53T4.75 1h4.5q.312 0 .53.22t.22.53V3h1.25zM14 4.75v6.5q0 .72-.516 1.234T12.25 13H12V3h.25q.72 0 1.234.516T14 4.75z"/></svg>