<svg xmlns="http://www.w3.org/2000/svg" width="11" height="14" viewBox="0 0 11 14"><path fill="#444" d="M11 9.687q0 .21-.078.55t-.164.536q-.164.39-.953.828-.734.4-1.453.4-.21 0-.41-.028t-.45-.098-.37-.113-.434-.16-.383-.14q-.766-.273-1.367-.648-1-.617-2.066-1.684T1.188 7.062Q.813 6.46.54 5.695q-.023-.07-.14-.383t-.16-.434-.114-.37-.098-.45T0 3.648q0-.72.4-1.453.437-.79.827-.953.195-.086.535-.164T2.312 1q.11 0 .165.023.14.047.414.594.087.148.235.422t.273.495.242.418q.023.03.137.195t.168.277.055.223q0 .156-.223.39t-.484.43-.484.415-.224.36q0 .07.04.175t.065.16.11.187.09.148q.594 1.07 1.36 1.836t1.835 1.358q.016.008.148.09t.187.11.16.065.176.04q.14 0 .36-.224t.413-.485.43-.484T8.35 8q.11 0 .223.055t.277.168.195.138q.195.117.418.242t.496.273.42.234q.548.273.595.414.023.056.023.165z"/></svg>