<svg xmlns="http://www.w3.org/2000/svg" width="13" height="14" viewBox="0 0 13 14"><path fill="#444" d="M6 2.5V8q0 .813-.316 1.55T4.83 10.83t-1.278.855-1.55.316h-.5q-.204 0-.353-.15T1 11.5v-1q0-.204.15-.353T1.5 10H2q.83 0 1.415-.587T4 8v-.25q0-.313-.218-.532t-.53-.22H1.5Q.875 7 .438 6.562T0 5.5v-3q0-.626.44-1.063T1.5 1h3q.626 0 1.063.437T6 2.5zm7 0V8q0 .813-.316 1.55t-.855 1.278-1.278.855-1.55.316h-.5q-.204 0-.353-.15T8 11.5v-1q0-.204.15-.353T8.5 10H9q.83 0 1.415-.587T11 8v-.25q0-.313-.218-.532t-.53-.22H8.5q-.626 0-1.063-.437T7 5.5v-3q0-.626.44-1.063T8.5 1h3q.626 0 1.063.437T13 2.5z"/></svg>