<svg xmlns="http://www.w3.org/2000/svg" width="12" height="14" viewBox="0 0 12 14"><path fill="#444" d="M9.164 8.305q0-.39-.152-.715t-.38-.535-.57-.383-.644-.266-.684-.18L5.92 6.04q-.233-.056-.343-.083t-.273-.09-.234-.125-.13-.164-.058-.234q0-.602 1.125-.602.336 0 .602.094t.42.223.298.26.312.228.375.094q.367 0 .59-.25t.223-.602q0-.43-.438-.777t-1.11-.527-1.42-.18q-.532 0-1.032.12t-.934.368-.695.68-.263 1.004q0 .477.148.832t.438.59.625.38.805.253l1.14.28q.704.173.876.282.25.156.25.47 0 .304-.313.503t-.82.2q-.398 0-.715-.126t-.508-.3-.355-.353-.36-.302-.422-.125q-.39 0-.59.234t-.2.586q0 .72.954 1.23t2.273.512q.57 0 1.094-.145t.956-.418.69-.73.26-1.027zM12 10q0 1.242-.88 2.12T9 13q-1.016 0-1.828-.625Q6.57 12.5 6 12.5q-1.117 0-2.137-.434t-1.758-1.172T.933 9.136.5 7q0-.57.124-1.173Q0 5.014 0 4q0-1.243.878-2.122t2.12-.88q1.017 0 1.83.626.6-.125 1.17-.125 1.118 0 2.138.433t1.758 1.172 1.172 1.758T11.5 7q0 .57-.125 1.172Q12 8.985 12 10z"/></svg>