<svg xmlns="http://www.w3.org/2000/svg" width="13" height="14" viewBox="0 0 13 14"><path fill="#444" d="M8.883 7.844l2.39-2.32-3.296-.484L6.5 2.056 5.023 5.04l-3.297.484 2.39 2.32-.57 3.29L6.5 9.577l2.945 1.555zM13 5.054q0 .173-.203.376L9.96 8.196l.673 3.906q.008.055.008.156 0 .39-.32.39-.147 0-.31-.093L6.5 10.71l-3.507 1.845q-.172.094-.312.094-.163 0-.245-.114t-.082-.277q0-.048.016-.157l.67-3.906L.198 5.43q-.195-.21-.195-.374 0-.29.438-.36l3.922-.57L6.12.573q.148-.32.383-.32t.383.32l1.758 3.555 3.922.57q.438.07.438.36z"/></svg>