<svg xmlns="http://www.w3.org/2000/svg" width="8" height="14" viewBox="0 0 8 14"><path fill="#444" d="M4 9q0-.28-.156-.54-.008-.007-.12-.175t-.2-.297-.195-.344-.165-.395q-.03-.126-.164-.126t-.163.125q-.055.18-.164.394t-.195.344-.2.297-.12.176q-.156.26-.156.54 0 .414.293.707t.707.293.707-.293T4 9zm4-1q0 1.656-1.172 2.828T4 12t-2.828-1.172T0 8q0-1.133.633-2.148.047-.07.488-.707t.79-1.18.777-1.39T3.335 1q.07-.234.266-.367T4 .5t.4.133.263.367q.22.727.648 1.574t.778 1.39.79 1.18.487.708q.633.992.633 2.148z"/></svg>