<svg xmlns="http://www.w3.org/2000/svg" width="13" height="14" viewBox="0 0 13 14"><path fill="#444" d="M12.656 3.188q-.523.766-1.266 1.305.008.11.008.328 0 1.017-.297 2.028t-.9 1.94-1.442 1.646-2.016 1.14-2.523.427Q2.1 12 .343 10.87q.273.03.61.03 1.757 0 3.132-1.077-.82-.015-1.47-.503t-.89-1.246q.258.04.477.04.336 0 .664-.086-.875-.18-1.45-.87T.845 5.547v-.03q.53.296 1.14.32-.515-.345-.82-.9T.86 3.737q0-.688.344-1.273.945 1.164 2.3 1.863t2.903.777q-.062-.297-.062-.578 0-1.047.738-1.785t1.785-.738q1.094 0 1.844.797.852-.165 1.602-.61-.29.898-1.11 1.39.728-.077 1.454-.39z"/></svg>