<svg xmlns="http://www.w3.org/2000/svg" width="11" height="14" viewBox="0 0 11 14"><path fill="#444" d="M3 10.5q0 .203-.148.352T2.5 11t-.352-.148T2 10.5t.148-.352T2.5 10t.352.148T3 10.5zm8 .477q0 .945-.57 1.484T8.914 13H2.086q-.945 0-1.516-.54T0 10.978q0-.53.043-1.023T.23 8.876.6 7.84t.634-.804.937-.473Q2 6.97 2 7.5v1.586q-.454.156-.728.547T1 10.5q0 .625.437 1.062T2.5 12t1.06-.438T4 10.5q0-.477-.278-.867T3 9.086V7.5q0-.484.194-.727 1.03.813 2.305.813t2.304-.813Q8 7.015 8 7.5V8q-.83 0-1.415.586T6 10v.695q-.25.227-.25.555 0 .312.218.53t.53.22.532-.22.22-.53q0-.328-.25-.555V10q0-.406.296-.703T8 9t.702.297T9 10v.695q-.25.227-.25.555 0 .312.218.53t.53.22.532-.22.22-.53q0-.328-.25-.555V10q0-.53-.27-.996T9 8.274q0-.078.003-.332t0-.375-.02-.324-.055-.367-.102-.312q.53.117.937.473t.633.805.37 1.035.188 1.078.043 1.023zM8.5 4q0 1.242-.88 2.12T5.5 7t-2.12-.88T2.5 4t.88-2.12T5.5 1t2.12.88T8.5 4z"/></svg>