<svg xmlns="http://www.w3.org/2000/svg" width="12" height="14" viewBox="0 0 12 14"><path fill="#444" d="M7.586 9.72v1.647q0 .523-.305.523-.18 0-.35-.172V9.366q.17-.172.35-.172.306 0 .306.523zm2.64.007v.36h-.702v-.36q0-.53.352-.53t.352.53zM2.68 8.023h.836V7.29H1.078v.733h.82v4.445h.78V8.023zm2.25 4.446h.695V8.61H4.93v2.953q-.234.328-.445.328-.14 0-.164-.163-.007-.023-.007-.273V8.61h-.695v3.055q0 .383.062.57.094.29.453.29.375 0 .797-.478v.422zm3.35-1.157v-1.54q0-.57-.07-.772-.132-.437-.554-.437-.39 0-.727.422V7.29h-.696v5.18h.695v-.375q.35.43.726.43.422 0 .555-.43.07-.21.07-.78zm2.642-.08v-.1h-.71q0 .397-.017.476-.055.28-.312.28-.36 0-.36-.54v-.68h1.4v-.804q0-.617-.212-.906-.304-.398-.827-.398-.53 0-.836.398-.22.29-.22.906v1.352q0 .617.228.906.305.398.844.398.562 0 .843-.414.14-.21.164-.422.016-.07.016-.453zm-4.75-7.13V2.46q0-.538-.336-.538t-.336.54V4.1q0 .547.336.547t.336-.548zm5.617 5.866q0 1.827-.204 2.733-.11.46-.453.773t-.797.36q-1.438.163-4.336.163t-4.336-.165q-.453-.047-.8-.36t-.45-.772Q.21 11.828.21 9.97q0-1.83.204-2.735.11-.46.453-.773t.805-.367Q3.102 5.94 6 5.94t4.336.155q.453.055.8.367t.45.773q.203.875.203 2.734zM3.99 0h.797l-.946 3.117v2.117h-.78V3.117q-.11-.578-.478-1.656Q2.296.657 2.078 0h.828l.555 2.055zm2.89 2.602V3.97q0 .632-.218.92-.29.4-.828.4-.523 0-.82-.4-.22-.296-.22-.92V2.6q0-.625.22-.914.297-.398.82-.398.54 0 .828.398.22.29.22.914zM9.5 1.336v3.898h-.71v-.43q-.415.484-.806.484-.36 0-.46-.29-.063-.186-.063-.585V1.335h.712v2.867q0 .258.008.273.023.172.164.172.21 0 .445-.336V1.335h.71z"/></svg>